<svg width="20" height="26" viewBox="0 0 20 26" fill="none" xmlns="http://www.w3.org/2000/svg">
<path d="M16.8288 0.197021H3.20179C2.44802 0.199934 1.7262 0.501749 1.1947 1.03624C0.66321 1.57074 0.36546 2.29425 0.36679 3.04802V18.166C0.36413 18.3147 0.420182 18.4584 0.52279 18.566L6.59579 24.828C6.64821 24.8831 6.71116 24.927 6.78091 24.9573C6.85066 24.9875 6.92577 25.0034 7.00179 25.004H16.8298C17.2024 25.0024 17.5711 24.9274 17.9147 24.7833C18.2583 24.6391 18.5702 24.4286 18.8323 24.1638C19.0945 23.899 19.302 23.5851 19.4427 23.2401C19.5835 22.8951 19.6549 22.5257 19.6528 22.153V3.05302C19.6556 2.67988 19.5846 2.30987 19.4441 1.9642C19.3035 1.61854 19.0961 1.30401 18.8338 1.03868C18.5714 0.77334 18.2592 0.562407 17.9152 0.417976C17.5711 0.273546 17.2019 0.198459 16.8288 0.197021ZM6.45279 23.022L2.26679 18.743H5.86679C6.01895 18.7408 6.16592 18.7983 6.27621 18.9032C6.38649 19.0081 6.45131 19.1519 6.45679 19.304L6.45279 23.022ZM18.5128 22.149C18.5163 22.5985 18.3416 23.0311 18.0269 23.3521C17.7123 23.6731 17.2833 23.8565 16.8338 23.862H7.59079V19.304C7.58552 18.8499 7.40088 18.4164 7.07716 18.0979C6.75343 17.7794 6.3169 17.6019 5.86279 17.604H1.50379V3.04802C1.50219 2.59547 1.68038 2.1608 1.99916 1.83958C2.31794 1.51836 2.75124 1.33687 3.20379 1.33502H16.8288C17.2783 1.33898 17.7079 1.5208 18.0237 1.84069C18.3394 2.16059 18.5157 2.59253 18.5138 3.04202V22.149H18.5128Z" fill="#1DAFF2"/>
</svg>
