<svg width="21" height="15" viewBox="0 0 21 15" fill="none" xmlns="http://www.w3.org/2000/svg">
<path d="M7.33405 0.757999C7.50561 0.929185 7.6026 1.16121 7.60391 1.40356C7.60522 1.64591 7.51075 1.87897 7.34105 2.052L3.07305 6.334H19.3361C19.5785 6.334 19.8109 6.4303 19.9823 6.6017C20.1538 6.77311 20.2501 7.00559 20.2501 7.248C20.2501 7.49041 20.1538 7.72289 19.9823 7.89429C19.8109 8.0657 19.5785 8.162 19.3361 8.162H3.07305L7.34805 12.448C7.5163 12.6218 7.60979 12.8545 7.60849 13.0964C7.60718 13.3383 7.51118 13.5701 7.34105 13.742C7.25609 13.8261 7.1554 13.8925 7.04474 13.9377C6.93408 13.9828 6.81561 14.0057 6.6961 14.0051C6.57659 14.0044 6.45838 13.9802 6.34822 13.9339C6.23805 13.8876 6.13809 13.82 6.05405 13.735L0.260053 7.895C0.180916 7.81041 0.116674 7.71304 0.0700526 7.607C0.0225648 7.49579 -0.00127353 7.37592 5.2428e-05 7.255C-0.000127047 7.01591 0.0931824 6.78623 0.260053 6.615L6.05405 0.778999C6.13636 0.692954 6.23492 0.624095 6.34402 0.576413C6.45313 0.528731 6.57061 0.503173 6.68967 0.50122C6.80872 0.499267 6.92698 0.520956 7.03759 0.565034C7.1482 0.609111 7.24897 0.6747 7.33405 0.757999Z" fill="#1DAFF2"/>
</svg>
