<svg width="22" height="28" viewBox="0 0 22 28" fill="none" xmlns="http://www.w3.org/2000/svg">
<path d="M20.9227 19.1503C20.4574 17.6138 20.2196 16.0066 20.2183 14.3888V10.3925C20.247 7.8611 19.4168 5.40702 17.8864 3.49978C16.356 1.59254 14.2329 0.366066 11.9233 0.0550122C10.6378 -0.0941917 9.33782 0.0609807 8.11264 0.509876C6.88485 0.93931 5.75945 1.65854 4.81691 2.61614C3.86718 3.54907 3.11003 4.6904 2.59538 5.96488C2.07836 7.23944 1.8084 8.61624 1.80235 10.0094V14.4101C1.79962 16.0211 1.56184 17.6215 1.09789 19.1514L0 22.6862L0.881607 24.0026H7.32681C7.32681 25.0628 7.71397 26.0795 8.40312 26.8292C9.09226 27.5788 10.0269 28 11.0015 28C11.9761 28 12.9108 27.5788 13.6 26.8292C14.2891 26.0795 14.6763 25.0628 14.6763 24.0026H21.1215L22 22.6862L20.9217 19.1458L20.9227 19.1503ZM12.2972 25.4467C12.0378 25.7212 11.7103 25.9072 11.355 25.9816C10.9996 26.056 10.6321 26.0157 10.2975 25.8656C9.96302 25.7156 9.67619 25.4623 9.47241 25.137C9.26864 24.8117 9.15684 24.4286 9.15079 24.0351H12.8276C12.8351 24.2975 12.7919 24.5586 12.7009 24.8018C12.6099 25.0449 12.4731 25.2646 12.2992 25.4467H12.2972ZM2.15458 22.024L2.83741 19.7945C3.36945 18.0584 3.64444 16.2413 3.65208 14.4112V10.0094C3.65163 8.89486 3.8693 7.79303 4.29062 6.77714C4.70769 5.7558 5.31662 4.84071 6.07827 4.09071C6.83992 3.34071 7.73742 2.7724 8.71308 2.42232C9.68868 2.06534 10.7238 1.94264 11.7472 2.06269C13.6021 2.32623 15.3027 3.32382 16.5243 4.86491C17.7459 6.406 18.4028 8.38259 18.3696 10.4172V14.4381C18.3662 16.2692 18.6415 18.0882 19.1842 19.8214L19.8671 22.0476H2.15664V22.024H2.15458Z" fill="#7FCCEF"/>
</svg>
