<svg width="23" height="27" viewBox="0 0 23 27" fill="none" xmlns="http://www.w3.org/2000/svg">
<path d="M9.473 5.15602H11.306V6.98902C11.306 7.09166 11.3468 7.1901 11.4193 7.26267C11.4919 7.33525 11.5904 7.37602 11.693 7.37602C11.7956 7.37602 11.8941 7.33525 11.9667 7.26267C12.0392 7.1901 12.08 7.09166 12.08 6.98902V5.15602H13.861C13.9636 5.15602 14.0621 5.11525 14.1347 5.04267C14.2072 4.9701 14.248 4.87166 14.248 4.76902C14.248 4.66638 14.2072 4.56795 14.1347 4.49537C14.0621 4.4228 13.9636 4.38202 13.861 4.38202H12.08V2.60102C12.08 2.49838 12.0392 2.39995 11.9667 2.32737C11.8941 2.2548 11.7956 2.21402 11.693 2.21402C11.5904 2.21402 11.4919 2.2548 11.4193 2.32737C11.3468 2.39995 11.306 2.49838 11.306 2.60102V4.38202H9.473C9.37036 4.38202 9.27192 4.4228 9.19935 4.49537C9.12677 4.56795 9.086 4.66638 9.086 4.76902C9.086 4.87166 9.12677 4.9701 9.19935 5.04267C9.27192 5.11525 9.37036 5.15602 9.473 5.15602ZM21.037 10.628H19.876V7.91802C19.8755 7.40473 19.6713 6.9126 19.3084 6.54965C18.9454 6.18669 18.4533 5.98255 17.94 5.98202H16.314C16.4981 5.27592 16.518 4.53701 16.372 3.82204C16.226 3.10707 15.9181 2.43507 15.472 1.85764C15.0258 1.28022 14.4532 0.812731 13.7982 0.491086C13.1432 0.169442 12.4232 0.00219727 11.6935 0.00219727C10.9638 0.00219727 10.2438 0.169442 9.58877 0.491086C8.93377 0.812731 8.3612 1.28022 7.91503 1.85764C7.46887 2.43507 7.16097 3.10707 7.01501 3.82204C6.86904 4.53701 6.88888 5.27592 7.073 5.98202H2.71C1.99126 5.98202 1.30196 6.26754 0.793739 6.77576C0.285516 7.28399 0 7.97329 0 8.69202V22.941C0.00105867 23.865 0.368569 24.7508 1.0219 25.4041C1.67524 26.0575 2.56105 26.425 3.485 26.426H21.037C21.5503 26.4255 22.0424 26.2214 22.4054 25.8584C22.7683 25.4954 22.9725 25.0033 22.973 24.49V12.564C22.9725 12.0507 22.7683 11.5586 22.4054 11.1956C22.0424 10.8327 21.5503 10.6286 21.037 10.628ZM11.693 0.768023C12.3418 0.768807 12.9807 0.927172 13.5548 1.2295C14.1289 1.53183 14.621 1.96907 14.9887 2.50363C15.3564 3.03819 15.5888 3.65406 15.6658 4.29829C15.7429 4.94252 15.6623 5.59582 15.431 6.20202C15.4216 6.22199 15.4139 6.24273 15.408 6.26402C15.0551 7.1417 14.4015 7.86518 13.564 8.30502H9.822C8.98434 7.86494 8.33067 7.14107 7.978 6.26302C7.97213 6.24173 7.96444 6.22099 7.955 6.20102C7.72393 5.59488 7.6435 4.94168 7.72065 4.29759C7.7978 3.65349 8.03021 3.03777 8.39791 2.50335C8.7656 1.96892 9.25758 1.53178 9.83155 1.22951C10.4055 0.927234 11.0443 0.768868 11.693 0.768023ZM1.341 7.32302C1.52035 7.14267 1.7337 6.99969 1.96869 6.90237C2.20368 6.80504 2.45565 6.7553 2.71 6.75602H7.347C7.61524 7.34439 8.00118 7.87156 8.481 8.30502H5.808C5.70536 8.30502 5.60693 8.3458 5.53435 8.41837C5.46177 8.49095 5.421 8.58938 5.421 8.69202C5.421 8.79466 5.46177 8.8931 5.53435 8.96567C5.60693 9.03825 5.70536 9.07902 5.808 9.07902H17.527C17.6296 9.07902 17.7281 9.03825 17.8007 8.96567C17.8732 8.8931 17.914 8.79466 17.914 8.69202C17.914 8.58938 17.8732 8.49095 17.8007 8.41837C17.7281 8.3458 17.6296 8.30502 17.527 8.30502H14.905C15.3848 7.87156 15.7708 7.34439 16.039 6.75602H17.939C18.2469 6.75655 18.5421 6.87918 18.7597 7.09701C18.9774 7.31484 19.0997 7.6101 19.1 7.91802V10.628H2.71C2.32811 10.6271 1.95503 10.5132 1.63771 10.3007C1.32039 10.0882 1.073 9.78662 0.926662 9.43387C0.780327 9.08113 0.741586 8.69299 0.815311 8.31828C0.889037 7.94357 1.07194 7.59904 1.341 7.32802V7.32302ZM22.2 20.437H17.966C17.4594 20.437 16.9736 20.2358 16.6154 19.8776C16.2572 19.5194 16.056 19.0336 16.056 18.527C16.056 18.0205 16.2572 17.5346 16.6154 17.1764C16.9736 16.8183 17.4594 16.617 17.966 16.617H22.2V20.437ZM22.2 15.842H17.966C17.6091 15.8351 17.2544 15.8995 16.9227 16.0313C16.591 16.1631 16.2888 16.3597 16.034 16.6097C15.7792 16.8597 15.5767 17.1579 15.4386 17.4871C15.3004 17.8162 15.2292 18.1696 15.2292 18.5265C15.2292 18.8835 15.3004 19.2369 15.4386 19.566C15.5767 19.8951 15.7792 20.1934 16.034 20.4433C16.2888 20.6933 16.591 20.8899 16.9227 21.0218C17.2544 21.1536 17.6091 21.2179 17.966 21.211H22.2V24.489C22.1997 24.7971 22.0772 25.0925 21.8594 25.3104C21.6415 25.5282 21.3461 25.6508 21.038 25.651H3.485C2.76651 25.6502 2.07767 25.3645 1.56962 24.8564C1.06157 24.3484 0.775796 23.6595 0.775002 22.941V10.587C1.0268 10.8455 1.32785 11.0509 1.66038 11.1911C1.9929 11.3312 2.35014 11.4033 2.711 11.403H21.037C21.3451 11.403 21.6406 11.5253 21.8587 11.743C22.0767 11.9606 22.1995 12.2559 22.2 12.564V15.842ZM17.6 18.527C17.6 18.6036 17.6227 18.6784 17.6652 18.742C17.7077 18.8057 17.7682 18.8553 17.8389 18.8846C17.9096 18.9139 17.9874 18.9215 18.0625 18.9066C18.1376 18.8917 18.2065 18.8548 18.2607 18.8007C18.3148 18.7465 18.3516 18.6776 18.3666 18.6025C18.3815 18.5275 18.3738 18.4496 18.3445 18.3789C18.3152 18.3082 18.2656 18.2478 18.202 18.2052C18.1384 18.1627 18.0635 18.14 17.987 18.14C17.9362 18.14 17.8859 18.15 17.8389 18.1695C17.7919 18.1889 17.7493 18.2174 17.7133 18.2534C17.6774 18.2893 17.6489 18.332 17.6295 18.3789C17.61 18.4259 17.6 18.4762 17.6 18.527Z" fill="#1DAFF2"/>
</svg>
