<svg width="29" height="29" viewBox="0 0 29 29" fill="none" xmlns="http://www.w3.org/2000/svg">
<path d="M28.54 6.016H22.565V5.1C22.565 4.978 22.5165 4.861 22.4303 4.77473C22.344 4.68846 22.227 4.64 22.105 4.64H21.645V3.721C21.645 2.86726 21.3061 2.04844 20.7027 1.44447C20.0992 0.840501 19.2807 0.500795 18.427 0.5H11.073C10.2198 0.500794 9.40173 0.840088 8.79841 1.44341C8.19509 2.04673 7.85579 2.86478 7.855 3.718V4.637H7.4C7.33959 4.637 7.27978 4.6489 7.22397 4.67202C7.16816 4.69513 7.11745 4.72902 7.07473 4.77173C7.03202 4.81445 6.99813 4.86516 6.97502 4.92097C6.9519 4.97678 6.94 5.03659 6.94 5.097V6.016H0.96C0.899592 6.016 0.839776 6.0279 0.783966 6.05102C0.728156 6.07413 0.677446 6.10802 0.634731 6.15073C0.592016 6.19345 0.558132 6.24416 0.535015 6.29997C0.511898 6.35578 0.5 6.41559 0.5 6.476V14.75C0.5 14.8104 0.511898 14.8702 0.535015 14.926C0.558132 14.9818 0.592016 15.0326 0.634731 15.0753C0.677446 15.118 0.728156 15.1519 0.783966 15.175C0.839776 15.1981 0.899592 15.21 0.96 15.21H1.42V28.54C1.42 28.662 1.46846 28.779 1.55473 28.8653C1.641 28.9515 1.758 29 1.88 29H27.621C27.743 29 27.86 28.9515 27.9463 28.8653C28.0325 28.779 28.081 28.662 28.081 28.54V15.21H28.541C28.663 15.21 28.78 15.1615 28.8663 15.0753C28.9525 14.989 29.001 14.872 29.001 14.75V6.476C29.001 6.41551 28.9891 6.35561 28.9659 6.29973C28.9427 6.24386 28.9087 6.19311 28.8659 6.15038C28.8231 6.10765 28.7723 6.07379 28.7163 6.05073C28.6604 6.02767 28.6005 6.01587 28.54 6.016ZM11.073 4.637H10.613V3.718C10.613 3.596 10.6615 3.479 10.7477 3.39273C10.834 3.30646 10.951 3.258 11.073 3.258H18.428C18.55 3.258 18.667 3.30646 18.7533 3.39273C18.8395 3.479 18.888 3.596 18.888 3.718V4.637H18.428C18.3676 4.637 18.3078 4.6489 18.252 4.67202C18.1962 4.69513 18.1454 4.72902 18.1027 4.77173C18.06 4.81445 18.0261 4.86516 18.003 4.92097C17.9799 4.97678 17.968 5.03659 17.968 5.097V6.016H11.532V5.1C11.5324 5.03942 11.5208 4.97937 11.4979 4.92327C11.4751 4.86718 11.4413 4.81616 11.3987 4.77314C11.356 4.73012 11.3053 4.69595 11.2494 4.67259C11.1935 4.64922 11.1336 4.63713 11.073 4.637ZM18.888 5.556H21.646V6.016H18.887L18.888 5.556ZM8.774 3.718C8.774 3.108 9.01632 2.52299 9.44765 2.09165C9.87899 1.66032 10.464 1.418 11.074 1.418H18.429C19.039 1.418 19.624 1.66032 20.0553 2.09165C20.4867 2.52299 20.729 3.108 20.729 3.718V4.637H19.81V3.718C19.8095 3.35243 19.664 3.00198 19.4055 2.74348C19.147 2.48499 18.7966 2.33953 18.431 2.339H11.073C10.7074 2.33953 10.357 2.48499 10.0985 2.74348C9.83999 3.00198 9.69453 3.35243 9.694 3.718V4.637H8.775L8.774 3.718ZM7.855 5.557H10.613V6.017H7.855V5.557ZM27.161 28.081H2.339V15.21H11.533V16.589C11.533 16.711 11.5815 16.828 11.6677 16.9143C11.754 17.0005 11.871 17.049 11.993 17.049H17.509C17.631 17.049 17.748 17.0005 17.8343 16.9143C17.9205 16.828 17.969 16.711 17.969 16.589V15.21H27.163L27.161 28.081ZM12.452 16.129V13.371H17.052V16.129H12.452ZM28.081 14.29H17.968V12.911C17.968 12.789 17.9195 12.672 17.8333 12.5857C17.747 12.4995 17.63 12.451 17.508 12.451H11.992C11.87 12.451 11.753 12.4995 11.6667 12.5857C11.5805 12.672 11.532 12.789 11.532 12.911V14.29H1.419V6.935H28.081V14.29Z" fill="#1DAFF2"/>
</svg>
